<svg xmlns="http://www.w3.org/2000/svg" width="200" height="220" fill="none" viewBox="0 0 200 220"><rect width="200" height="200" y="10" fill="#FF0F0F" rx="40"/><path fill="#fff" d="M75.444 48.778h8.149v8.148h-8.149zm8.149 0h8.148v8.148h-8.148zm8.148 0h8.148v8.148H91.74zm8.148 0h8.148v8.148h-8.148zm8.148 0h8.148v8.148h-8.148zm8.148 0h8.148v8.148h-8.148zm0 8.148h8.148v8.148h-8.148zm8.148 0h8.148v8.148h-8.148zm-16.296 0h8.148v8.148h-8.148zm-8.148 0h8.148v8.148h-8.148zm-8.148 0h8.148v8.148H91.74zm-8.148 0h8.148v8.148h-8.148zm-8.149 0h8.149v8.148h-8.149zm-8.148 8.148h8.148v8.148h-8.148zm0-8.148h8.148v8.148h-8.148zm-8.148 8.148h8.148v8.148h-8.148zm16.296 0h8.149v8.148h-8.149zm8.149 0h8.148v8.148h-8.148zm8.148 0h8.148v8.148H91.74zm8.148 0h8.148v8.148h-8.148zm8.148 0h8.148v8.148h-8.148zm8.148 0h8.148v8.148h-8.148zm8.148 0h8.148v8.148h-8.148zm8.148 0h8.149v8.148h-8.149zm0 8.148h8.149v8.148h-8.149zm-8.148 0h8.148v8.148h-8.148zm-8.148 0h8.148v8.148h-8.148zm-8.148 0h8.148v8.148h-8.148zm8.148 8.148h8.148v8.148h-8.148zm16.296 0h8.149v8.148h-8.149zm-8.148 0h8.148v8.148h-8.148zm8.148 48.889h8.149v8.148h-8.149zm0 8.148h8.149v8.149h-8.149zm0 8.149h8.149v8.148h-8.149zm-8.148 0h8.148v8.148h-8.148zm0-8.149h8.148v8.149h-8.148zm0-8.148h8.148v8.148h-8.148zm-8.148 0h8.148v8.148h-8.148zm0 8.148h8.148v8.149h-8.148zm-8.148 0h8.148v8.149h-8.148zm8.148 8.149h8.148v8.148h-8.148zm8.148 8.148h8.148v8.148h-8.148zm-8.148 0h8.148v8.148h-8.148zm-8.148-8.148h8.148v8.148h-8.148zm0 8.148h8.148v8.148h-8.148zm8.148 8.148h8.148V171h-8.148zm-8.148 0h8.148V171h-8.148zm-8.148 0h8.148V171h-8.148zm-8.148 0h8.148V171H91.74zm-8.148 0h8.148V171h-8.148zm-8.149 0h8.149V171h-8.149zm0-8.148h8.149v8.148h-8.149zm8.149 0h8.148v8.148h-8.148zm0-8.148h8.148v8.148h-8.148zm8.148 0h8.148v8.148H91.74zm8.148 0h8.148v8.148h-8.148zm0 8.148h8.148v8.148h-8.148zm-8.148 0h8.148v8.148H91.74zm-24.445 0h8.148v8.148h-8.148zm8.148-8.148h8.149v8.148h-8.149zm8.149-8.149h8.148v8.149h-8.148zm-8.149 0h8.149v8.149h-8.149zm-8.148 0h8.148v8.149h-8.148zm0 8.149h8.148v8.148h-8.148zm-8.148 0h8.148v8.148h-8.148zm0-8.149h8.148v8.149h-8.148zm0-8.148h8.148v8.148h-8.148zm0-8.148h8.148v8.148h-8.148zm0-8.148h8.148v8.148h-8.148zm0-8.148h8.148v8.148h-8.148zm0-8.148h8.148v8.148h-8.148zm0-8.148h8.148v8.148h-8.148zm0-8.149h8.148v8.148h-8.148zm0-8.148h8.148v8.148h-8.148zm8.148 0h8.148v8.148h-8.148zm8.148 0h8.149v8.148h-8.149zm8.149 0h8.148v8.148h-8.148zm-8.149 8.148h8.149v8.148h-8.149zm0 8.148h8.149v8.149h-8.149zm0 8.149h8.149v8.148h-8.149zm0 8.148h8.149v8.148h-8.149zm0 8.148h8.149v8.148h-8.149zm0 8.148h8.149v8.148h-8.149zm0 8.148h8.149v8.148h-8.149zm-8.148 0h8.148v8.148h-8.148zm0-8.148h8.148v8.148h-8.148zm0-8.148h8.148v8.148h-8.148zm0-8.148h8.148v8.148h-8.148zm0-8.148h8.148v8.148h-8.148zm0-8.148h8.148v8.148h-8.148zm0-8.149h8.148v8.148h-8.148z"/></svg>