<svg xmlns="http://www.w3.org/2000/svg" width="512px" height="512px" style="shape-rendering:geometricPrecision;text-rendering:geometricPrecision;image-rendering:optimizeQuality;fill-rule:evenodd;clip-rule:evenodd"><path fill="#32b3fe" d="M111.5-.5h283q62.269 16.523 60.5 81-6.623 42.509-46.5 58.5a186 186 0 0 0-19 5.5q-11.893-14.373-30-8.5a267 267 0 0 0-20 8.5 2404 2404 0 0 0-120-.5Q83.87 160.39 22 281.5q-17.628 39.457-22.5 82v-252Q13.305 30.428 91.5 4a369 369 0 0 1 20-4.5" style="opacity:1"/><path fill="#199bdf" d="M394.5-.5h5q81.072 13.805 107.5 92a369 369 0 0 1 4.5 20v24q-8.652 79.558-82 111.5-24.645 9.38-51 8.5l15-98q-.198-7.09-4-13a186 186 0 0 1 19-5.5q39.877-15.992 46.5-58.5 1.769-64.477-60.5-81" style="opacity:.997"/><path fill="#fefefe" d="M389.5 144.5q3.802 5.91 4 13l-15 98a48474 48474 0 0 1-21.5 138q-7.912 23.836-32.5 17.5a118739 118739 0 0 1-67-48.5 2335 2335 0 0 0-44.5-33q-9.926-13.842 2.5-25.5l96.5-90.5q.996-7.495-6.5-5.5l-128 84q-19.253 11.225-41 6a4416 4416 0 0 1-63-17q-13.323-12.56-1-26a44410 44410 0 0 1 267-110.5 267 267 0 0 1 20-8.5q18.107-5.873 30 8.5" style="opacity:1"/><path fill="#0082be" d="M511.5 135.5v264q-13.806 81.072-92 107.5a370 370 0 0 1-20 4.5h-27q-87.93-12.668-113.5-98-5.86-25.567-1.5-51 33.456 24.236 67 48.5 24.588 6.336 32.5-17.5a48474 48474 0 0 0 21.5-138q26.355.88 51-8.5 73.348-31.942 82-111.5" style="opacity:1"/><path fill="#199bdf" d="M339.5 144.5A44410 44410 0 0 0 72.5 255q-12.323 13.44 1 26a4416 4416 0 0 0 63 17q21.747 5.225 41-6l128-84q7.496-1.995 6.5 5.5L215.5 304q-12.426 11.658-2.5 25.5a2335 2335 0 0 1 44.5 33q-4.36 25.433 1.5 51 25.57 85.332 113.5 98h-261Q30.428 497.694 4 419.5a369 369 0 0 1-4.5-20v-36q4.872-42.543 22.5-82Q83.87 160.39 219.5 144a2404 2404 0 0 1 120 .5" style="opacity:.999"/></svg>